<svg xmlns="http://www.w3.org/2000/svg" xmlns:xlink="http://www.w3.org/1999/xlink" width="500" zoomAndPan="magnify" viewBox="0 0 375 374.999991" height="500" preserveAspectRatio="xMidYMid meet" version="1.0"><defs><g/></defs><g fill="#ffde59" fill-opacity="1"><g transform="translate(110.218203, 241.125073)"><g><path d="M 19.1875 -0.921875 C 19.238281 -0.804688 19.265625 -0.695312 19.265625 -0.59375 C 19.265625 -0.382812 19.179688 -0.207031 19.015625 -0.0625 C 18.847656 0.0703125 18.648438 0.140625 18.421875 0.140625 C 18.273438 0.140625 18.128906 0.09375 17.984375 0 C 17.847656 -0.09375 17.742188 -0.222656 17.671875 -0.390625 L 15.546875 -5.265625 L 4.671875 -5.265625 L 2.515625 -0.390625 C 2.347656 -0.0351562 2.085938 0.140625 1.734375 0.140625 C 1.515625 0.140625 1.320312 0.0703125 1.15625 -0.0625 C 1 -0.207031 0.921875 -0.390625 0.921875 -0.609375 C 0.921875 -0.742188 0.941406 -0.847656 0.984375 -0.921875 L 9.15625 -19.296875 C 9.320312 -19.703125 9.628906 -19.90625 10.078125 -19.90625 C 10.285156 -19.90625 10.476562 -19.847656 10.65625 -19.734375 C 10.832031 -19.628906 10.957031 -19.484375 11.03125 -19.296875 Z M 5.3125 -6.78125 L 14.875 -6.78125 L 10.109375 -17.609375 Z M 5.3125 -6.78125 "/></g></g></g><g fill="#ffde59" fill-opacity="1"><g transform="translate(138.775316, 241.125073)"><g><path d="M 17.046875 -10.109375 C 17.273438 -10.109375 17.457031 -10.035156 17.59375 -9.890625 C 17.738281 -9.753906 17.8125 -9.578125 17.8125 -9.359375 L 17.8125 -1.9375 C 17.8125 -1.445312 17.597656 -1.109375 17.171875 -0.921875 C 16.398438 -0.566406 15.46875 -0.285156 14.375 -0.078125 C 13.28125 0.117188 12.175781 0.21875 11.0625 0.21875 C 9.132812 0.21875 7.472656 -0.175781 6.078125 -0.96875 C 4.691406 -1.757812 3.628906 -2.914062 2.890625 -4.4375 C 2.160156 -5.957031 1.796875 -7.773438 1.796875 -9.890625 C 1.796875 -11.953125 2.15625 -13.738281 2.875 -15.25 C 3.601562 -16.769531 4.648438 -17.9375 6.015625 -18.75 C 7.378906 -19.5625 8.992188 -19.96875 10.859375 -19.96875 C 12.171875 -19.96875 13.394531 -19.753906 14.53125 -19.328125 C 15.664062 -18.910156 16.597656 -18.3125 17.328125 -17.53125 C 17.578125 -17.289062 17.703125 -17.019531 17.703125 -16.71875 C 17.703125 -16.507812 17.644531 -16.328125 17.53125 -16.171875 C 17.414062 -16.023438 17.273438 -15.953125 17.109375 -15.953125 C 16.960938 -15.953125 16.753906 -16.046875 16.484375 -16.234375 C 15.503906 -17.054688 14.59375 -17.625 13.75 -17.9375 C 12.90625 -18.257812 11.941406 -18.421875 10.859375 -18.421875 C 8.546875 -18.421875 6.757812 -17.675781 5.5 -16.1875 C 4.238281 -14.707031 3.609375 -12.609375 3.609375 -9.890625 C 3.609375 -7.109375 4.242188 -4.976562 5.515625 -3.5 C 6.785156 -2.019531 8.632812 -1.28125 11.0625 -1.28125 C 11.988281 -1.28125 12.90625 -1.359375 13.8125 -1.515625 C 14.71875 -1.679688 15.523438 -1.914062 16.234375 -2.21875 L 16.234375 -8.65625 L 11.703125 -8.65625 C 11.441406 -8.65625 11.238281 -8.71875 11.09375 -8.84375 C 10.957031 -8.976562 10.890625 -9.15625 10.890625 -9.375 C 10.890625 -9.601562 10.957031 -9.78125 11.09375 -9.90625 C 11.238281 -10.039062 11.441406 -10.109375 11.703125 -10.109375 Z M 17.046875 -10.109375 "/></g></g></g><g fill="#ffde59" fill-opacity="1"><g transform="translate(167.304425, 241.125073)"><g><path d="M 3.46875 0 C 3.207031 0 2.988281 -0.0820312 2.8125 -0.25 C 2.632812 -0.414062 2.546875 -0.625 2.546875 -0.875 L 2.546875 -18.875 C 2.546875 -19.113281 2.632812 -19.316406 2.8125 -19.484375 C 2.988281 -19.648438 3.207031 -19.734375 3.46875 -19.734375 L 14.109375 -19.734375 C 14.347656 -19.734375 14.535156 -19.664062 14.671875 -19.53125 C 14.816406 -19.40625 14.890625 -19.222656 14.890625 -18.984375 C 14.890625 -18.753906 14.816406 -18.570312 14.671875 -18.4375 C 14.535156 -18.3125 14.347656 -18.25 14.109375 -18.25 L 4.25 -18.25 L 4.25 -10.78125 L 13.546875 -10.78125 C 13.796875 -10.78125 13.988281 -10.710938 14.125 -10.578125 C 14.269531 -10.453125 14.34375 -10.269531 14.34375 -10.03125 C 14.34375 -9.78125 14.269531 -9.585938 14.125 -9.453125 C 13.988281 -9.328125 13.796875 -9.265625 13.546875 -9.265625 L 4.25 -9.265625 L 4.25 -1.484375 L 14.109375 -1.484375 C 14.347656 -1.484375 14.535156 -1.421875 14.671875 -1.296875 C 14.816406 -1.179688 14.890625 -1 14.890625 -0.75 C 14.890625 -0.507812 14.816406 -0.320312 14.671875 -0.1875 C 14.535156 -0.0625 14.347656 0 14.109375 0 Z M 3.46875 0 "/></g></g></g><g fill="#ffde59" fill-opacity="1"><g transform="translate(191.914068, 241.125073)"><g><path d="M 17.21875 -19.875 C 17.476562 -19.875 17.675781 -19.796875 17.8125 -19.640625 C 17.957031 -19.484375 18.03125 -19.265625 18.03125 -18.984375 L 18.03125 -0.75 C 18.03125 -0.488281 17.953125 -0.273438 17.796875 -0.109375 C 17.648438 0.0546875 17.445312 0.140625 17.1875 0.140625 C 16.90625 0.140625 16.65625 0 16.4375 -0.28125 L 4.171875 -16.828125 L 4.171875 -0.75 C 4.171875 -0.488281 4.09375 -0.273438 3.9375 -0.109375 C 3.789062 0.0546875 3.597656 0.140625 3.359375 0.140625 C 3.078125 0.140625 2.867188 0.0625 2.734375 -0.09375 C 2.609375 -0.257812 2.546875 -0.476562 2.546875 -0.75 L 2.546875 -18.984375 C 2.546875 -19.242188 2.625 -19.457031 2.78125 -19.625 C 2.945312 -19.789062 3.164062 -19.875 3.4375 -19.875 C 3.738281 -19.875 3.984375 -19.734375 4.171875 -19.453125 L 16.40625 -2.9375 L 16.40625 -18.984375 C 16.40625 -19.242188 16.476562 -19.457031 16.625 -19.625 C 16.78125 -19.789062 16.976562 -19.875 17.21875 -19.875 Z M 17.21875 -19.875 "/></g></g></g><g fill="#ffde59" fill-opacity="1"><g transform="translate(220.891124, 241.125073)"><g><path d="M 10.75 0.21875 C 8.925781 0.21875 7.335938 -0.1875 5.984375 -1 C 4.628906 -1.8125 3.59375 -2.976562 2.875 -4.5 C 2.15625 -6.019531 1.796875 -7.816406 1.796875 -9.890625 C 1.796875 -11.953125 2.15625 -13.738281 2.875 -15.25 C 3.59375 -16.769531 4.628906 -17.9375 5.984375 -18.75 C 7.335938 -19.5625 8.925781 -19.96875 10.75 -19.96875 C 12 -19.96875 13.1875 -19.753906 14.3125 -19.328125 C 15.445312 -18.910156 16.40625 -18.3125 17.1875 -17.53125 C 17.445312 -17.289062 17.578125 -17.019531 17.578125 -16.71875 C 17.578125 -16.507812 17.515625 -16.328125 17.390625 -16.171875 C 17.273438 -16.023438 17.144531 -15.953125 17 -15.953125 C 16.8125 -15.953125 16.597656 -16.046875 16.359375 -16.234375 C 15.347656 -17.054688 14.429688 -17.625 13.609375 -17.9375 C 12.785156 -18.257812 11.820312 -18.421875 10.71875 -18.421875 C 8.46875 -18.421875 6.71875 -17.671875 5.46875 -16.171875 C 4.226562 -14.679688 3.609375 -12.585938 3.609375 -9.890625 C 3.609375 -7.160156 4.226562 -5.046875 5.46875 -3.546875 C 6.71875 -2.054688 8.46875 -1.3125 10.71875 -1.3125 C 11.820312 -1.3125 12.785156 -1.46875 13.609375 -1.78125 C 14.429688 -2.101562 15.347656 -2.675781 16.359375 -3.5 C 16.628906 -3.6875 16.84375 -3.78125 17 -3.78125 C 17.144531 -3.78125 17.273438 -3.703125 17.390625 -3.546875 C 17.515625 -3.398438 17.578125 -3.226562 17.578125 -3.03125 C 17.578125 -2.726562 17.445312 -2.457031 17.1875 -2.21875 C 16.40625 -1.425781 15.445312 -0.820312 14.3125 -0.40625 C 13.1875 0.0078125 12 0.21875 10.75 0.21875 Z M 10.75 0.21875 "/></g></g></g><g fill="#ffde59" fill-opacity="1"><g transform="translate(248.244402, 241.125073)"><g><path d="M 14.921875 -19.515625 C 15.085938 -19.742188 15.296875 -19.859375 15.546875 -19.859375 C 15.742188 -19.859375 15.914062 -19.78125 16.0625 -19.625 C 16.21875 -19.476562 16.296875 -19.289062 16.296875 -19.0625 C 16.296875 -18.863281 16.226562 -18.6875 16.09375 -18.53125 L 9.09375 -9.515625 L 9.09375 -0.75 C 9.09375 -0.488281 9.019531 -0.273438 8.875 -0.109375 C 8.726562 0.0546875 8.523438 0.140625 8.265625 0.140625 C 8.003906 0.140625 7.789062 0.0546875 7.625 -0.109375 C 7.46875 -0.273438 7.390625 -0.488281 7.390625 -0.75 L 7.390625 -9.578125 L 0.421875 -18.53125 C 0.285156 -18.6875 0.21875 -18.863281 0.21875 -19.0625 C 0.21875 -19.269531 0.289062 -19.453125 0.4375 -19.609375 C 0.59375 -19.773438 0.773438 -19.859375 0.984375 -19.859375 C 1.222656 -19.859375 1.425781 -19.742188 1.59375 -19.515625 L 8.265625 -10.890625 Z M 14.921875 -19.515625 "/></g></g></g><g fill="#ffffff" fill-opacity="1"><g transform="translate(94.999077, 192.174947)"><g><path d="M 26.921875 -0.300781 C 40.195312 -0.300781 50.917969 -10.949219 50.917969 -24.148438 L 50.917969 -66.816406 L 41.246094 -66.816406 L 41.246094 -24.148438 C 41.246094 -16.347656 34.871094 -9.898438 26.921875 -9.898438 C 19.199219 -9.898438 12.671875 -16.199219 12.597656 -23.921875 L 3 -23.921875 C 3.148438 -10.722656 13.875 -0.300781 26.921875 -0.300781 Z M 26.921875 -0.300781 "/></g></g></g><g fill="#ffffff" fill-opacity="1"><g transform="translate(148.915669, 192.174947)"><g><path d="M 10.949219 0.0742188 L 20.546875 0.0742188 L 20.546875 -26.472656 L 35.472656 -26.472656 C 46.570312 -26.472656 55.570312 -35.472656 55.570312 -46.570312 C 55.570312 -57.746094 46.570312 -66.742188 35.472656 -66.742188 L 3 -66.742188 L 3 -57.070312 L 10.949219 -57.070312 Z M 20.546875 -36.070312 L 20.546875 -57.070312 L 35.472656 -57.070312 C 41.246094 -57.070312 45.96875 -52.34375 45.96875 -46.570312 C 45.96875 -40.796875 41.246094 -36.070312 35.472656 -36.070312 Z M 20.546875 -36.070312 "/></g></g></g><g fill="#ffffff" fill-opacity="1"><g transform="translate(207.481537, 192.174947)"><g><path d="M 36.144531 -0.300781 C 53.246094 -0.300781 67.644531 -13.574219 69.144531 -30.523438 L 69.519531 -35.695312 L 46.71875 -35.695312 L 46.71875 -26.097656 L 58.417969 -26.097656 L 58.34375 -25.722656 C 55.042969 -16.273438 46.121094 -9.898438 36.144531 -9.898438 C 23.171875 -9.898438 12.597656 -20.472656 12.597656 -33.445312 C 12.597656 -46.34375 23.171875 -56.917969 36.144531 -56.917969 C 41.546875 -56.917969 46.796875 -55.042969 50.996094 -51.519531 L 57.144531 -59.019531 C 51.371094 -63.742188 43.644531 -66.519531 36.144531 -66.519531 C 17.847656 -66.519531 3 -51.746094 3 -33.445312 C 3 -15.148438 17.773438 -0.300781 36.144531 -0.300781 Z M 36.144531 -0.300781 "/></g></g></g></svg>