<svg xmlns="http://www.w3.org/2000/svg" xmlns:xlink="http://www.w3.org/1999/xlink" width="240" zoomAndPan="magnify" viewBox="0 0 180 98.999996" height="132" preserveAspectRatio="xMidYMid meet" version="1.0"><defs><g/></defs><g fill="#ffde59" fill-opacity="1"><g transform="translate(27.620223, 92.784717)"><g><path d="M 15.484375 -0.75 C 15.523438 -0.65625 15.546875 -0.5625 15.546875 -0.46875 C 15.546875 -0.300781 15.476562 -0.160156 15.34375 -0.046875 C 15.207031 0.0546875 15.046875 0.109375 14.859375 0.109375 C 14.742188 0.109375 14.628906 0.0703125 14.515625 0 C 14.398438 -0.0703125 14.3125 -0.175781 14.25 -0.3125 L 12.546875 -4.25 L 3.765625 -4.25 L 2.03125 -0.3125 C 1.894531 -0.03125 1.6875 0.109375 1.40625 0.109375 C 1.21875 0.109375 1.0625 0.0546875 0.9375 -0.046875 C 0.8125 -0.160156 0.75 -0.3125 0.75 -0.5 C 0.75 -0.601562 0.765625 -0.6875 0.796875 -0.75 L 7.390625 -15.5625 C 7.523438 -15.894531 7.773438 -16.0625 8.140625 -16.0625 C 8.296875 -16.0625 8.445312 -16.015625 8.59375 -15.921875 C 8.738281 -15.835938 8.84375 -15.71875 8.90625 -15.5625 Z M 4.296875 -5.46875 L 12 -5.46875 L 8.15625 -14.21875 Z M 4.296875 -5.46875 "/></g></g></g><g fill="#ffde59" fill-opacity="1"><g transform="translate(50.670755, 92.784717)"><g><path d="M 13.765625 -8.15625 C 13.941406 -8.15625 14.085938 -8.097656 14.203125 -7.984375 C 14.316406 -7.867188 14.375 -7.722656 14.375 -7.546875 L 14.375 -1.5625 C 14.375 -1.164062 14.195312 -0.894531 13.84375 -0.75 C 13.226562 -0.457031 12.476562 -0.226562 11.59375 -0.0625 C 10.71875 0.101562 9.828125 0.1875 8.921875 0.1875 C 7.367188 0.1875 6.03125 -0.128906 4.90625 -0.765625 C 3.789062 -1.410156 2.9375 -2.347656 2.34375 -3.578125 C 1.75 -4.804688 1.453125 -6.269531 1.453125 -7.96875 C 1.453125 -9.644531 1.742188 -11.09375 2.328125 -12.3125 C 2.910156 -13.53125 3.75 -14.46875 4.84375 -15.125 C 5.945312 -15.78125 7.253906 -16.109375 8.765625 -16.109375 C 9.816406 -16.109375 10.800781 -15.9375 11.71875 -15.59375 C 12.644531 -15.257812 13.398438 -14.773438 13.984375 -14.140625 C 14.179688 -13.941406 14.28125 -13.722656 14.28125 -13.484375 C 14.28125 -13.316406 14.234375 -13.171875 14.140625 -13.046875 C 14.054688 -12.929688 13.945312 -12.875 13.8125 -12.875 C 13.6875 -12.875 13.519531 -12.953125 13.3125 -13.109375 C 12.507812 -13.765625 11.769531 -14.21875 11.09375 -14.46875 C 10.414062 -14.726562 9.640625 -14.859375 8.765625 -14.859375 C 6.898438 -14.859375 5.457031 -14.257812 4.4375 -13.0625 C 3.425781 -11.875 2.921875 -10.175781 2.921875 -7.96875 C 2.921875 -5.726562 3.429688 -4.015625 4.453125 -2.828125 C 5.472656 -1.640625 6.960938 -1.046875 8.921875 -1.046875 C 9.671875 -1.046875 10.410156 -1.109375 11.140625 -1.234375 C 11.878906 -1.359375 12.535156 -1.539062 13.109375 -1.78125 L 13.109375 -6.984375 L 9.4375 -6.984375 C 9.226562 -6.984375 9.066406 -7.035156 8.953125 -7.140625 C 8.835938 -7.242188 8.78125 -7.382812 8.78125 -7.5625 C 8.78125 -7.75 8.835938 -7.894531 8.953125 -8 C 9.066406 -8.101562 9.226562 -8.15625 9.4375 -8.15625 Z M 13.765625 -8.15625 "/></g></g></g><g fill="#ffde59" fill-opacity="1"><g transform="translate(73.698684, 92.784717)"><g><path d="M 2.796875 0 C 2.585938 0 2.410156 -0.0664062 2.265625 -0.203125 C 2.128906 -0.335938 2.0625 -0.503906 2.0625 -0.703125 L 2.0625 -15.234375 C 2.0625 -15.421875 2.128906 -15.582031 2.265625 -15.71875 C 2.410156 -15.851562 2.585938 -15.921875 2.796875 -15.921875 L 11.390625 -15.921875 C 11.585938 -15.921875 11.738281 -15.867188 11.84375 -15.765625 C 11.957031 -15.660156 12.015625 -15.507812 12.015625 -15.3125 C 12.015625 -15.132812 11.957031 -14.992188 11.84375 -14.890625 C 11.738281 -14.785156 11.585938 -14.734375 11.390625 -14.734375 L 3.4375 -14.734375 L 3.4375 -8.703125 L 10.9375 -8.703125 C 11.132812 -8.703125 11.285156 -8.644531 11.390625 -8.53125 C 11.503906 -8.425781 11.5625 -8.28125 11.5625 -8.09375 C 11.5625 -7.894531 11.503906 -7.742188 11.390625 -7.640625 C 11.285156 -7.535156 11.132812 -7.484375 10.9375 -7.484375 L 3.4375 -7.484375 L 3.4375 -1.203125 L 11.390625 -1.203125 C 11.585938 -1.203125 11.738281 -1.148438 11.84375 -1.046875 C 11.957031 -0.953125 12.015625 -0.804688 12.015625 -0.609375 C 12.015625 -0.410156 11.957031 -0.257812 11.84375 -0.15625 C 11.738281 -0.0507812 11.585938 0 11.390625 0 Z M 2.796875 0 "/></g></g></g><g fill="#ffde59" fill-opacity="1"><g transform="translate(93.562925, 92.784717)"><g><path d="M 13.890625 -16.046875 C 14.109375 -16.046875 14.269531 -15.976562 14.375 -15.84375 C 14.488281 -15.71875 14.546875 -15.539062 14.546875 -15.3125 L 14.546875 -0.609375 C 14.546875 -0.398438 14.484375 -0.226562 14.359375 -0.09375 C 14.242188 0.0390625 14.082031 0.109375 13.875 0.109375 C 13.644531 0.109375 13.441406 0 13.265625 -0.21875 L 3.359375 -13.578125 L 3.359375 -0.609375 C 3.359375 -0.398438 3.296875 -0.226562 3.171875 -0.09375 C 3.054688 0.0390625 2.90625 0.109375 2.71875 0.109375 C 2.488281 0.109375 2.320312 0.046875 2.21875 -0.078125 C 2.113281 -0.203125 2.0625 -0.378906 2.0625 -0.609375 L 2.0625 -15.3125 C 2.0625 -15.53125 2.125 -15.707031 2.25 -15.84375 C 2.375 -15.976562 2.550781 -16.046875 2.78125 -16.046875 C 3.019531 -16.046875 3.210938 -15.929688 3.359375 -15.703125 L 13.234375 -2.375 L 13.234375 -15.3125 C 13.234375 -15.53125 13.289062 -15.707031 13.40625 -15.84375 C 13.53125 -15.976562 13.691406 -16.046875 13.890625 -16.046875 Z M 13.890625 -16.046875 "/></g></g></g><g fill="#ffde59" fill-opacity="1"><g transform="translate(116.952425, 92.784717)"><g><path d="M 8.671875 0.1875 C 7.203125 0.1875 5.921875 -0.140625 4.828125 -0.796875 C 3.734375 -1.453125 2.894531 -2.394531 2.3125 -3.625 C 1.738281 -4.851562 1.453125 -6.300781 1.453125 -7.96875 C 1.453125 -9.644531 1.738281 -11.09375 2.3125 -12.3125 C 2.894531 -13.53125 3.734375 -14.46875 4.828125 -15.125 C 5.921875 -15.78125 7.203125 -16.109375 8.671875 -16.109375 C 9.679688 -16.109375 10.640625 -15.9375 11.546875 -15.59375 C 12.460938 -15.257812 13.238281 -14.773438 13.875 -14.140625 C 14.082031 -13.941406 14.1875 -13.722656 14.1875 -13.484375 C 14.1875 -13.316406 14.132812 -13.171875 14.03125 -13.046875 C 13.9375 -12.929688 13.832031 -12.875 13.71875 -12.875 C 13.5625 -12.875 13.382812 -12.953125 13.1875 -13.109375 C 12.375 -13.765625 11.632812 -14.21875 10.96875 -14.46875 C 10.3125 -14.726562 9.539062 -14.859375 8.65625 -14.859375 C 6.832031 -14.859375 5.421875 -14.253906 4.421875 -13.046875 C 3.421875 -11.847656 2.921875 -10.15625 2.921875 -7.96875 C 2.921875 -5.769531 3.421875 -4.066406 4.421875 -2.859375 C 5.421875 -1.660156 6.832031 -1.0625 8.65625 -1.0625 C 9.539062 -1.0625 10.3125 -1.1875 10.96875 -1.4375 C 11.632812 -1.695312 12.375 -2.160156 13.1875 -2.828125 C 13.414062 -2.972656 13.59375 -3.046875 13.71875 -3.046875 C 13.832031 -3.046875 13.9375 -2.984375 14.03125 -2.859375 C 14.132812 -2.742188 14.1875 -2.601562 14.1875 -2.4375 C 14.1875 -2.195312 14.082031 -1.976562 13.875 -1.78125 C 13.238281 -1.15625 12.460938 -0.671875 11.546875 -0.328125 C 10.640625 0.015625 9.679688 0.1875 8.671875 0.1875 Z M 8.671875 0.1875 "/></g></g></g><g fill="#ffde59" fill-opacity="1"><g transform="translate(139.031254, 92.784717)"><g><path d="M 12.046875 -15.75 C 12.179688 -15.925781 12.347656 -16.015625 12.546875 -16.015625 C 12.703125 -16.015625 12.84375 -15.953125 12.96875 -15.828125 C 13.09375 -15.710938 13.15625 -15.566406 13.15625 -15.390625 C 13.15625 -15.222656 13.097656 -15.078125 12.984375 -14.953125 L 7.34375 -7.6875 L 7.34375 -0.609375 C 7.34375 -0.398438 7.28125 -0.226562 7.15625 -0.09375 C 7.039062 0.0390625 6.878906 0.109375 6.671875 0.109375 C 6.453125 0.109375 6.28125 0.0390625 6.15625 -0.09375 C 6.03125 -0.226562 5.96875 -0.398438 5.96875 -0.609375 L 5.96875 -7.734375 L 0.34375 -14.953125 C 0.238281 -15.078125 0.1875 -15.222656 0.1875 -15.390625 C 0.1875 -15.554688 0.242188 -15.703125 0.359375 -15.828125 C 0.484375 -15.953125 0.628906 -16.015625 0.796875 -16.015625 C 0.984375 -16.015625 1.144531 -15.925781 1.28125 -15.75 L 6.671875 -8.78125 Z M 12.046875 -15.75 "/></g></g></g><g fill="#ffffff" fill-opacity="1"><g transform="translate(15.335748, 53.273492)"><g><path d="M 21.730469 -0.242188 C 32.445312 -0.242188 41.101562 -8.835938 41.101562 -19.492188 L 41.101562 -53.933594 L 33.292969 -53.933594 L 33.292969 -19.492188 C 33.292969 -13.195312 28.148438 -7.988281 21.730469 -7.988281 C 15.496094 -7.988281 10.230469 -13.074219 10.167969 -19.308594 L 2.421875 -19.308594 C 2.542969 -8.65625 11.199219 -0.242188 21.730469 -0.242188 Z M 21.730469 -0.242188 "/></g></g></g><g fill="#ffffff" fill-opacity="1"><g transform="translate(58.855769, 53.273492)"><g><path d="M 8.835938 0.0585938 L 16.585938 0.0585938 L 16.585938 -21.367188 L 28.632812 -21.367188 C 37.589844 -21.367188 44.855469 -28.632812 44.855469 -37.589844 C 44.855469 -46.609375 37.589844 -53.875 28.632812 -53.875 L 2.421875 -53.875 L 2.421875 -46.066406 L 8.835938 -46.066406 Z M 16.585938 -29.117188 L 16.585938 -46.066406 L 28.632812 -46.066406 C 33.292969 -46.066406 37.105469 -42.25 37.105469 -37.589844 C 37.105469 -32.929688 33.292969 -29.117188 28.632812 -29.117188 Z M 16.585938 -29.117188 "/></g></g></g><g fill="#ffffff" fill-opacity="1"><g transform="translate(106.128562, 53.273492)"><g><path d="M 29.175781 -0.242188 C 42.976562 -0.242188 54.601562 -10.957031 55.808594 -24.636719 L 56.113281 -28.8125 L 37.710938 -28.8125 L 37.710938 -21.066406 L 47.15625 -21.066406 L 47.09375 -20.761719 C 44.429688 -13.136719 37.226562 -7.988281 29.175781 -7.988281 C 18.703125 -7.988281 10.167969 -16.523438 10.167969 -26.996094 C 10.167969 -37.410156 18.703125 -45.945312 29.175781 -45.945312 C 33.535156 -45.945312 37.773438 -44.429688 41.160156 -41.585938 L 46.125 -47.636719 C 41.464844 -51.453125 35.230469 -53.691406 29.175781 -53.691406 C 14.40625 -53.691406 2.421875 -41.765625 2.421875 -26.996094 C 2.421875 -12.226562 14.347656 -0.242188 29.175781 -0.242188 Z M 29.175781 -0.242188 "/></g></g></g></svg>